<svg xmlns="http://www.w3.org/2000/svg" xmlns:xlink="http://www.w3.org/1999/xlink" version="1.1" width="256" height="256" viewBox="0 0 256 256" xml:space="preserve">

<defs>
</defs>
<g style="stroke: none; stroke-width: 0; stroke-dasharray: none; stroke-linecap: butt; stroke-linejoin: miter; stroke-miterlimit: 10; fill: rgb(255,255,255); fill-rule: nonzero; opacity: 1;" transform="translate(0 -2.842170943040401e-14) scale(2.81 2.81)" >
	<path d="M 45 90 C 20.187 90 0 69.814 0 45 C 0 20.187 20.187 0 45 0 c 24.814 0 45 20.187 45 45 C 90 69.814 69.814 90 45 90 z M 45 5.625 C 23.289 5.625 5.625 23.289 5.625 45 c 0 21.712 17.664 39.375 39.375 39.375 c 21.712 0 39.375 -17.663 39.375 -39.375 C 84.375 23.289 66.712 5.625 45 5.625 z" style="stroke: none; stroke-width: 1; stroke-dasharray: none; stroke-linecap: butt; stroke-linejoin: miter; stroke-miterlimit: 10; fill: rgb(255,255,255); fill-rule: nonzero; opacity: 1;" transform=" matrix(1 0 0 1 0 0) " stroke-linecap="round" />
</g>
<g style="stroke: none; stroke-width: 0; stroke-dasharray: none; stroke-linecap: butt; stroke-linejoin: miter; stroke-miterlimit: 10; fill: none; fill-rule: nonzero; opacity: 1;" transform="translate(46.17984832069338 46.17984832069335) scale(1.82 1.82)" >
	<path d="M 62.263 90 H 27.738 C 12.443 90 0 77.557 0 62.263 V 27.738 C 0 12.443 12.443 0 27.738 0 h 34.525 C 77.557 0 90 12.443 90 27.738 v 34.525 C 90 77.557 77.557 90 62.263 90 z M 27.738 7 C 16.303 7 7 16.303 7 27.738 v 34.525 C 7 73.697 16.303 83 27.738 83 h 34.525 C 73.697 83 83 73.697 83 62.263 V 27.738 C 83 16.303 73.697 7 62.263 7 H 27.738 z" style="stroke: none; stroke-width: 1; stroke-dasharray: none; stroke-linecap: butt; stroke-linejoin: miter; stroke-miterlimit: 10; fill: rgb(255,255,255); fill-rule: nonzero; opacity: 1;" transform=" matrix(1 0 0 1 0 0) " stroke-linecap="round" />
	<path d="M 45.255 70.47 c -13.904 0 -25.215 -11.312 -25.215 -25.215 S 31.352 20.04 45.255 20.04 s 25.215 11.312 25.215 25.215 S 59.159 70.47 45.255 70.47 z M 45.255 27.04 c -10.044 0 -18.215 8.171 -18.215 18.215 c 0 10.044 8.171 18.215 18.215 18.215 c 10.044 0 18.215 -8.171 18.215 -18.215 C 63.471 35.211 55.3 27.04 45.255 27.04 z" style="stroke: none; stroke-width: 1; stroke-dasharray: none; stroke-linecap: butt; stroke-linejoin: miter; stroke-miterlimit: 10; fill: rgb(255,255,255); fill-rule: nonzero; opacity: 1;" transform=" matrix(1 0 0 1 0 0) " stroke-linecap="round" />
	<circle cx="70.557" cy="19.936999999999998" r="4.897" style="stroke: none; stroke-width: 1; stroke-dasharray: none; stroke-linecap: butt; stroke-linejoin: miter; stroke-miterlimit: 10; fill: rgb(255,255,255); fill-rule: nonzero; opacity: 1;" transform="  matrix(1 0 0 1 0 0) "/>
</g>
</svg>